<svg version="1.1" xmlns="http://www.w3.org/2000/svg" xmlns:xlink="http://www.w3.org/1999/xlink" x="0px" y="0px"
	 viewBox="0 0 449.5 172" enable-background="new 0 0 449.5 172" xml:space="preserve">
<g id="Layer_1">
	<g>
		<path fill="#A90000" d="M225.7,129.3h-27V58.8l-19.5,45.7h-18.7L141,58.8v70.5h-25.6V24.1h31.5l23.7,52.8l23.6-52.8h31.5V129.3z"
			/>
		<path fill="#A90000" d="M342.6,129.3h-28l-7.3-21.3h-38.9l-7.3,21.3h-27.3l38.9-105.2h31.2L342.6,129.3z M300.7,88.7L287.7,51
			l-12.9,37.7H300.7z"/>
		<path fill="#A90000" d="M437.3,57.3c0,4.7-0.8,9.3-2.5,13.8c-1.7,4.5-4,8.3-7.1,11.3c-4.2,4.1-8.9,7.3-14,9.4
			c-5.2,2.1-11.6,3.2-19.3,3.2h-16.9v34.3h-27.1V24.1h44.7c6.7,0,12.3,0.6,16.9,1.7c4.6,1.2,8.7,2.9,12.2,5.2
			c4.2,2.8,7.5,6.3,9.7,10.7C436.2,46,437.3,51.2,437.3,57.3z M409.2,57.9c0-3-0.8-5.5-2.4-7.6c-1.6-2.1-3.5-3.6-5.6-4.5
			c-2.8-1.1-5.6-1.8-8.3-1.9c-2.7-0.1-6.3-0.2-10.7-0.2h-4.7v31.4h7.8c4.6,0,8.4-0.3,11.4-0.8c3-0.6,5.5-1.7,7.5-3.4
			c1.7-1.5,3-3.3,3.8-5.4S409.2,60.9,409.2,57.9z"/>
	</g>
	<line fill="none" x1="78.3" y1="-63" x2="60.5" y2="-71.3"/>
	<g>
		<path fill="#1F0000" d="M29.4,147.6l-4.3,8.6H23l-4.2-8.6v9.9h-3.5v-15.7H20l4,8.6l4.1-8.6h4.7v15.7h-3.5V147.6z"/>
		<path fill="#1F0000" d="M48.1,141.8v3.1h-7.8v3.2h7v3h-7v3.3h8.1v3.1H36.8v-15.7H48.1z"/>
		<path fill="#1F0000" d="M63.5,143.9c1.5,1.4,2.2,3.3,2.2,5.7s-0.7,4.4-2.2,5.8c-1.5,1.4-3.7,2.1-6.7,2.1h-5.4v-15.7H57
			C59.8,141.8,62,142.5,63.5,143.9z M60.9,153.2c0.9-0.8,1.3-2,1.3-3.5c0-1.5-0.4-2.7-1.3-3.6c-0.9-0.8-2.2-1.2-4-1.2h-2v9.6h2.2
			C58.8,154.4,60,154,60.9,153.2z"/>
		<path fill="#1F0000" d="M76,154.4c1.7,0,3.1-0.7,4.2-2l2.2,2.3c-1.8,2-3.9,3-6.3,3c-2.4,0-4.4-0.8-6-2.3c-1.6-1.5-2.4-3.5-2.4-5.8
			c0-2.3,0.8-4.3,2.4-5.8c1.6-1.6,3.5-2.3,5.9-2.3c2.6,0,4.7,1,6.5,2.9l-2.2,2.5c-1.1-1.4-2.5-2.1-4.1-2.1c-1.3,0-2.4,0.4-3.4,1.3
			s-1.4,2-1.4,3.5s0.4,2.6,1.3,3.5S74.7,154.4,76,154.4z"/>
		<path fill="#1F0000" d="M98.1,155.4c-1.6,1.6-3.5,2.3-5.9,2.3c-2.3,0-4.3-0.8-5.9-2.3c-1.6-1.6-2.4-3.5-2.4-5.8
			c0-2.3,0.8-4.2,2.4-5.8c1.6-1.6,3.5-2.3,5.9-2.3c2.3,0,4.3,0.8,5.9,2.3c1.6,1.6,2.4,3.5,2.4,5.8
			C100.5,151.9,99.7,153.8,98.1,155.4z M96.9,149.6c0-1.4-0.4-2.6-1.3-3.6c-0.9-1-2-1.5-3.3-1.5c-1.3,0-2.4,0.5-3.3,1.5
			c-0.9,1-1.3,2.2-1.3,3.6s0.5,2.6,1.3,3.6c0.9,1,2,1.5,3.3,1.5c1.3,0,2.4-0.5,3.3-1.5C96.5,152.2,96.9,151,96.9,149.6z"/>
		<path fill="#1F0000" d="M117.5,147.6l-4.3,8.6h-2.1l-4.2-8.6v9.9h-3.5v-15.7h4.7l4,8.6l4.1-8.6h4.7v15.7h-3.5V147.6z"/>
		<path fill="#A90000" d="M136.3,149.9c0.4,0.3,0.6,0.7,0.9,1.1s0.3,1,0.3,1.6c0,0.8-0.2,1.5-0.5,2.2c-0.3,0.7-0.8,1.2-1.4,1.7
			c-0.6,0.5-1.3,0.8-2.2,1.1s-1.8,0.4-3,0.4c-1.4,0-2.5-0.1-3.5-0.3c-1-0.2-1.8-0.5-2.4-0.7v-3.6h0.4c0.6,0.4,1.4,0.7,2.3,1
			s1.7,0.4,2.4,0.4c0.4,0,0.9,0,1.4-0.1c0.5-0.1,0.9-0.2,1.3-0.5c0.3-0.2,0.5-0.4,0.6-0.7c0.2-0.3,0.2-0.6,0.2-1.1
			c0-0.5-0.1-0.8-0.3-1.1s-0.5-0.4-0.9-0.6c-0.4-0.1-0.8-0.2-1.3-0.2c-0.5,0-1,0-1.4,0h-0.9v-2.9h0.9c0.6,0,1.1,0,1.5-0.1
			c0.4,0,0.8-0.1,1.1-0.3c0.3-0.1,0.6-0.3,0.7-0.6c0.2-0.2,0.2-0.6,0.2-1c0-0.3-0.1-0.6-0.3-0.8s-0.4-0.4-0.6-0.5
			c-0.3-0.1-0.6-0.2-1-0.3c-0.4,0-0.7-0.1-1-0.1c-0.7,0-1.4,0.1-2.2,0.4c-0.8,0.2-1.6,0.6-2.3,1H125v-3.5c0.6-0.2,1.4-0.5,2.4-0.7
			c1-0.2,2.1-0.3,3.1-0.3c1,0,1.9,0.1,2.7,0.3c0.8,0.2,1.4,0.4,1.9,0.7c0.6,0.4,1,0.8,1.3,1.3s0.4,1.1,0.4,1.8
			c0,0.9-0.3,1.7-0.8,2.4s-1.3,1.2-2.2,1.4v0.2c0.4,0.1,0.8,0.2,1.2,0.3C135.5,149.4,135.9,149.6,136.3,149.9z"/>
		<path fill="#A90000" d="M153.8,152c0,0.8-0.2,1.6-0.5,2.4s-0.7,1.4-1.3,1.9c-0.6,0.5-1.3,1-2.1,1.2s-1.7,0.4-2.7,0.4
			c-1,0-1.9-0.1-2.7-0.4c-0.8-0.3-1.5-0.7-2.1-1.2c-0.7-0.6-1.2-1.4-1.5-2.4c-0.4-1-0.5-2.2-0.5-3.6c0-1.4,0.2-2.7,0.5-3.8
			c0.3-1.1,0.9-2.1,1.6-3c0.7-0.8,1.6-1.5,2.8-1.9s2.5-0.7,4.1-0.7c0.5,0,1.1,0,1.8,0.1c0.6,0.1,1.1,0.1,1.2,0.2v3.2H152
			c-0.2-0.1-0.5-0.2-1-0.3c-0.5-0.1-1-0.2-1.6-0.2c-1.4,0-2.5,0.3-3.3,1c-0.8,0.7-1.3,1.6-1.4,2.9c0.6-0.3,1.2-0.6,1.8-0.8
			c0.6-0.2,1.3-0.3,2-0.3c0.6,0,1.2,0.1,1.8,0.2c0.5,0.1,1.1,0.4,1.5,0.7c0.6,0.4,1.1,1,1.5,1.7S153.8,150.9,153.8,152z
			 M148.8,154.4c0.2-0.2,0.4-0.5,0.5-0.9c0.1-0.3,0.2-0.8,0.2-1.4c0-0.5-0.1-1-0.2-1.3s-0.4-0.6-0.6-0.8c-0.3-0.2-0.6-0.3-0.9-0.4
			s-0.7-0.1-1.1-0.1c-0.3,0-0.7,0-1,0.1c-0.4,0.1-0.7,0.2-1,0.3c0,0.1,0,0.2,0,0.4c0,0.2,0,0.4,0,0.6c0,0.9,0.1,1.6,0.3,2.2
			c0.2,0.6,0.4,1,0.7,1.3c0.2,0.2,0.4,0.4,0.7,0.5s0.6,0.2,0.9,0.2c0.2,0,0.5-0.1,0.8-0.2C148.4,154.8,148.6,154.7,148.8,154.4z"/>
		<path fill="#A90000" d="M169.7,149.4c0,1.4-0.1,2.6-0.4,3.7s-0.6,2-1.2,2.7c-0.5,0.7-1.2,1.2-2.1,1.6c-0.8,0.4-1.9,0.5-3.1,0.5
			c-1.2,0-2.3-0.2-3.1-0.5c-0.9-0.4-1.6-0.9-2.1-1.6c-0.5-0.7-0.9-1.6-1.2-2.7s-0.4-2.3-0.4-3.7c0-1.4,0.1-2.7,0.4-3.7
			s0.6-1.9,1.2-2.7c0.5-0.7,1.2-1.3,2.1-1.6c0.9-0.4,1.9-0.5,3.1-0.5c1.3,0,2.3,0.2,3.2,0.6s1.5,0.9,2.1,1.7
			c0.5,0.7,0.9,1.6,1.2,2.7C169.6,146.8,169.7,148,169.7,149.4z M165.5,149.4c0-2-0.2-3.4-0.6-4.2c-0.4-0.8-1-1.3-1.9-1.3
			c-0.9,0-1.5,0.4-1.9,1.3c-0.4,0.8-0.6,2.3-0.6,4.3c0,1.9,0.2,3.3,0.6,4.2c0.4,0.9,1,1.3,1.9,1.3c0.9,0,1.5-0.4,1.9-1.3
			C165.3,152.7,165.5,151.3,165.5,149.4z"/>
		<path fill="#1F0000" d="M190,157.5l-1.5-3.4H182l-1.5,3.4h-3.7l6.8-15.7h3.4l6.8,15.7H190z M185.3,146.5l-2,4.6h3.9L185.3,146.5z"
			/>
		<path fill="#1F0000" d="M206.6,141.8h3.5v15.7h-3.5l-7.5-9.9v9.9h-3.5v-15.7h3.3l7.7,10.1V141.8z"/>
		<path fill="#1F0000" d="M225.2,157.5l-1.5-3.4h-6.6l-1.5,3.4h-3.7l6.8-15.7h3.4l6.8,15.7H225.2z M220.4,146.5l-2,4.6h3.9
			L220.4,146.5z"/>
		<path fill="#1F0000" d="M230.7,157.5v-15.7h3.5v12.6h6.7v3.1H230.7z"/>
		<path fill="#1F0000" d="M248.9,157.5h-3.5v-6.2l-5.4-9.5h3.8l3.4,5.8l3.4-5.8h3.8l-5.4,9.5V157.5z"/>
		<path fill="#1F0000" d="M262.7,144.9v12.7h-3.5v-12.7h-4.5v-3h12.4v3H262.7z"/>
		<path fill="#1F0000" d="M269.7,141.8h3.5v15.7h-3.5V141.8z"/>
		<path fill="#1F0000" d="M284.3,154.4c1.7,0,3.1-0.7,4.2-2l2.3,2.3c-1.8,2-3.9,3-6.3,3s-4.4-0.8-6-2.3c-1.6-1.5-2.4-3.5-2.4-5.8
			c0-2.3,0.8-4.3,2.4-5.8c1.6-1.6,3.6-2.3,5.9-2.3c2.6,0,4.7,1,6.5,2.9l-2.2,2.5c-1.1-1.4-2.5-2.1-4.1-2.1c-1.3,0-2.4,0.4-3.4,1.3
			s-1.4,2-1.4,3.5s0.4,2.6,1.3,3.5C282,154,283,154.4,284.3,154.4z"/>
		<path fill="#1F0000" d="M297.2,145c-0.3,0.3-0.5,0.6-0.5,1.1s0.2,0.8,0.6,1.1c0.4,0.3,1.4,0.6,2.9,1s2.7,0.9,3.5,1.7
			c0.8,0.7,1.2,1.8,1.2,3.2c0,1.4-0.5,2.6-1.6,3.4c-1.1,0.9-2.4,1.3-4.2,1.3c-2.5,0-4.7-0.9-6.7-2.8l2.1-2.6
			c1.7,1.5,3.3,2.2,4.7,2.2c0.6,0,1.2-0.1,1.5-0.4c0.4-0.3,0.6-0.7,0.6-1.1s-0.2-0.8-0.6-1.1c-0.4-0.3-1.2-0.6-2.3-0.8
			c-1.8-0.4-3.2-1-4-1.7c-0.8-0.7-1.3-1.8-1.3-3.3s0.5-2.6,1.6-3.5c1.1-0.8,2.4-1.2,4-1.2c1,0,2.1,0.2,3.1,0.5c1,0.4,2,0.9,2.7,1.5
			l-1.8,2.6c-1.4-1-2.8-1.6-4.2-1.6C298,144.5,297.6,144.7,297.2,145z"/>
		<path fill="#1F0000" d="M324.7,143.2c1.1,0.9,1.7,2.4,1.7,4.3c0,1.9-0.6,3.4-1.7,4.3c-1.1,0.9-2.9,1.3-5.2,1.3h-2.1v4.4h-3.5
			v-15.7h5.6C321.8,141.8,323.6,142.3,324.7,143.2z M322.1,149.4c0.4-0.5,0.6-1.2,0.6-2.1s-0.3-1.6-0.8-1.9
			c-0.5-0.4-1.4-0.6-2.6-0.6h-2v5.3h2.4C320.9,150.1,321.7,149.9,322.1,149.4z"/>
		<path fill="#1F0000" d="M329.1,157.5v-15.7h3.5v12.6h6.7v3.1H329.1z"/>
		<path fill="#1F0000" d="M353,157.5l-1.5-3.4H345l-1.5,3.4h-3.7l6.8-15.7h3.4l6.8,15.7H353z M348.3,146.5l-2,4.6h3.9L348.3,146.5z"
			/>
		<path fill="#1F0000" d="M364.1,144.9v12.7h-3.5v-12.7h-4.5v-3h12.4v3H364.1z"/>
		<path fill="#1F0000" d="M381.9,141.8v3.1h-7.3v3.4h6.9v3.1h-6.9v6.2h-3.5v-15.7H381.9z"/>
		<path fill="#1F0000" d="M398.1,155.4c-1.6,1.6-3.5,2.3-5.9,2.3s-4.3-0.8-5.9-2.3c-1.6-1.6-2.4-3.5-2.4-5.8c0-2.3,0.8-4.2,2.4-5.8
			c1.6-1.6,3.5-2.3,5.9-2.3s4.3,0.8,5.9,2.3c1.6,1.6,2.4,3.5,2.4,5.8C400.5,151.9,399.7,153.8,398.1,155.4z M396.9,149.6
			c0-1.4-0.4-2.6-1.3-3.6c-0.9-1-2-1.5-3.3-1.5c-1.3,0-2.4,0.5-3.3,1.5c-0.9,1-1.3,2.2-1.3,3.6s0.4,2.6,1.3,3.6c0.9,1,2,1.5,3.3,1.5
			c1.3,0,2.4-0.5,3.3-1.5C396.5,152.2,396.9,151,396.9,149.6z"/>
		<path fill="#1F0000" d="M416.2,147c0,2.5-1,4.1-3,4.9l4,5.6h-4.3l-3.5-5H407v5h-3.5v-15.7h6c2.4,0,4.2,0.4,5.2,1.2
			C415.7,143.9,416.2,145.2,416.2,147z M412,148.9c0.4-0.4,0.7-1,0.7-1.9c0-0.8-0.2-1.4-0.7-1.7c-0.5-0.3-1.2-0.5-2.4-0.5H407v4.7
			h2.6C410.7,149.5,411.6,149.3,412,148.9z"/>
		<path fill="#1F0000" d="M433.9,147.6l-4.3,8.6h-2.1l-4.2-8.6v9.9h-3.5v-15.7h4.7l4,8.6l4.1-8.6h4.7v15.7h-3.5V147.6z"/>
	</g>
</g>
<g id="Layer_2" display="none">
	<line display="inline" fill="none" stroke="#8C0000" stroke-miterlimit="10" x1="140.5" y1="58.5" x2="140.5" y2="24.5"/>
	<line display="inline" fill="none" stroke="#8C0000" stroke-miterlimit="10" x1="198.5" y1="58.5" x2="198.5" y2="24.5"/>
	<line display="inline" fill="none" stroke="#8C0000" stroke-miterlimit="10" x1="268.4" y1="108" x2="274.6" y2="89"/>
	<line display="inline" fill="none" stroke="#8C0000" stroke-miterlimit="10" x1="377.5" y1="43.5" x2="377.5" y2="24.5"/>
	<line display="inline" fill="none" stroke="#8C0000" stroke-miterlimit="10" x1="377.5" y1="94.5" x2="377.5" y2="75.5"/>
	<line display="inline" fill="none" stroke="#2AB600" stroke-miterlimit="10" x1="107.5" y1="129.5" x2="107.5" y2="43.5"/>
	<line display="inline" fill="none" stroke="#1E92FF" stroke-miterlimit="10" x1="73.5" y1="129.5" x2="73.5" y2="15.5"/>
	<line display="inline" fill="none" stroke="#D06430" stroke-miterlimit="10" x1="40.5" y1="129.5" x2="40.5" y2="31.5"/>
</g>
<g id="Layer_3">
	<rect x="14" y="28.5" fill="#FF792D" width="28.5" height="101.2"/>
	<rect x="47.2" y="12.9" fill="#1EB6FF" width="28.5" height="116.9"/>
	<rect x="80.6" y="41.2" fill="#2AE500" width="28.5" height="88.6"/>
</g>
</svg>
